<?xml version="1.0" standalone="no"?>
<!DOCTYPE svg PUBLIC "-//W3C//DTD SVG 20010904//EN"
 "http://www.w3.org/TR/2001/REC-SVG-20010904/DTD/svg10.dtd">
<svg version="1.0" xmlns="http://www.w3.org/2000/svg"
 width="500.000000pt" height="500.000000pt" viewBox="0 0 500.000000 500.000000"
 preserveAspectRatio="xMidYMid meet">

<g transform="translate(0.000000,500.000000) scale(0.100000,-0.100000)"
fill="#000000" stroke="none">
<path d="M2265 3705 c-5 -2 -68 -7 -140 -11 -90 -5 -122 -10 -105 -15 16 -6 2
-7 -37 -3 -38 3 -64 1 -68 -6 -4 -6 -21 -8 -43 -5 -22 4 -32 3 -25 -2 8 -6 -1
-9 -25 -10 -57 -1 -145 -14 -164 -24 -9 -5 -26 -9 -38 -9 -34 0 -226 -49 -365
-93 -71 -22 -132 -41 -135 -42 -30 -7 -180 -70 -180 -76 0 -5 -7 -6 -15 -3 -8
4 -17 -1 -21 -10 -3 -9 -12 -15 -18 -14 -18 4 -96 -34 -90 -43 3 -5 -2 -6 -10
-3 -9 3 -16 1 -16 -6 0 -6 -4 -9 -8 -6 -12 7 -74 -33 -68 -43 3 -5 -1 -12 -10
-15 -8 -3 -12 -2 -9 4 9 14 -7 12 -27 -4 -10 -7 -14 -17 -10 -21 4 -5 2 -5 -4
-2 -6 4 -26 -5 -44 -18 -18 -13 -38 -26 -44 -28 -7 -2 -6 -10 4 -22 14 -17 13
-17 -5 -8 -24 12 -45 6 -45 -13 0 -8 -7 -14 -16 -14 -8 0 -29 -13 -46 -30 -16
-16 -31 -30 -33 -30 -11 0 -100 -105 -99 -116 1 -7 -5 -10 -14 -6 -11 4 -14 1
-9 -11 4 -10 1 -17 -6 -17 -27 0 -137 -201 -137 -251 0 -10 -5 -21 -10 -24 -6
-4 -8 -16 -4 -27 4 -12 2 -18 -4 -14 -30 19 -12 -246 24 -334 26 -64 89 -176
120 -213 82 -99 239 -247 262 -247 6 0 12 -5 14 -12 3 -7 18 -13 34 -14 42 -2
44 -3 44 -15 0 -8 -5 -7 -15 1 -9 7 -19 10 -23 6 -4 -4 0 -12 8 -17 88 -53
222 -128 241 -134 13 -4 31 -13 39 -20 8 -7 35 -19 60 -26 25 -7 54 -19 65
-26 11 -6 56 -24 100 -38 44 -15 94 -32 110 -40 135 -59 604 -155 883 -181 78
-7 91 -18 40 -33 -18 -5 -27 -10 -20 -10 15 -1 16 -27 0 -37 -6 -4 -8 -3 -5 3
4 6 -3 13 -16 17 -33 9 -59 7 -52 -3 3 -5 -5 -12 -17 -14 -14 -3 -8 -5 17 -6
22 -2 49 -4 60 -6 11 -2 27 2 35 10 11 10 20 11 30 4 12 -9 12 -10 -2 -5 -10
3 -18 1 -18 -5 0 -7 12 -9 30 -7 17 3 30 1 30 -3 0 -4 6 -6 13 -6 6 1 95 -2
197 -6 659 -28 1368 118 1870 385 370 196 623 468 697 748 23 86 23 253 0 340
-82 315 -389 615 -832 813 -89 40 -284 116 -310 121 -5 2 -41 13 -80 25 -38
12 -83 23 -99 25 l-30 4 25 -19 c13 -10 20 -19 15 -19 -5 0 -3 -6 3 -14 9 -11
9 -16 -1 -22 -18 -11 -67 -6 -178 17 -52 11 -104 22 -115 23 -11 2 -27 6 -35
9 -18 7 -165 29 -280 41 -14 2 -38 6 -55 10 -16 3 -77 9 -135 12 -58 3 -134 8
-170 10 -50 4 -62 2 -50 -7 12 -9 11 -9 -5 -3 -11 5 -84 10 -163 12 -108 3
-147 0 -159 -10 -12 -9 -15 -10 -9 0 5 8 0 12 -16 11 -13 0 -27 -2 -33 -4z
m88 -32 c-7 -2 -19 -2 -25 0 -7 3 -2 5 12 5 14 0 19 -2 13 -5z m545 0 c-10 -2
-28 -2 -40 0 -13 2 -5 4 17 4 22 1 32 -1 23 -4z m67 -3 c-3 -5 -12 -10 -18
-10 -7 0 -6 4 3 10 19 12 23 12 15 0z m-408 -6 c-3 -3 -12 -4 -19 -1 -8 3 -5
6 6 6 11 1 17 -2 13 -5z m336 -11 c-7 -2 -19 -2 -25 0 -7 3 -2 5 12 5 14 0 19
-2 13 -5z m-1288 -53 c-3 -5 -12 -10 -18 -10 -7 0 -6 4 3 10 19 12 23 12 15 0z
m-118 -26 c-3 -3 -12 -4 -19 -1 -8 3 -5 6 6 6 11 1 17 -2 13 -5z m1023 -44 c0
-5 -5 -10 -11 -10 -5 0 -7 5 -4 10 3 6 8 10 11 10 2 0 4 -4 4 -10z m-190 -10
c0 -5 -8 -10 -17 -10 -15 0 -16 2 -3 10 19 12 20 12 20 0z m214 -5 c-4 -8 -11
-15 -16 -15 -6 0 -5 6 2 15 7 8 14 15 16 15 2 0 1 -7 -2 -15z m-1177 -11 c-3
-3 -12 -4 -19 -1 -8 3 -5 6 6 6 11 1 17 -2 13 -5z m923 -3 c0 -5 66 -9 146
-10 148 0 189 -5 179 -22 -9 -13 9 -11 24 4 8 6 6 0 -4 -15 -10 -16 -14 -35
-10 -48 4 -11 2 -20 -4 -20 -6 0 -11 -7 -11 -16 0 -8 3 -13 8 -11 4 3 7 -8 7
-23 1 -16 -2 -28 -5 -28 -18 2 -23 -4 -10 -12 12 -8 12 -10 -5 -10 -17 0 -17
-2 -5 -10 9 -6 10 -10 3 -10 -6 0 -14 -13 -17 -30 -3 -16 -9 -44 -12 -60 l-6
-31 79 2 c43 1 103 -2 133 -6 33 -4 66 -2 83 4 17 7 26 7 22 1 -6 -10 17 -18
70 -25 17 -2 31 -4 33 -6 1 -1 5 -2 10 -3 4 -1 13 -5 20 -9 6 -5 16 -6 21 -3
5 4 11 3 13 -1 1 -5 22 -20 46 -36 23 -15 42 -32 42 -38 0 -5 4 -8 9 -5 5 3
15 -1 22 -10 12 -14 14 -14 19 2 6 16 7 16 12 -3 5 -17 2 -21 -13 -18 -11 2
-24 7 -31 11 -7 4 -2 -7 11 -24 12 -18 27 -32 33 -32 6 0 5 7 -3 17 -10 11
-10 14 -1 9 6 -4 12 -4 13 1 1 4 2 20 3 34 2 14 6 31 10 37 3 6 2 13 -3 17 -5
3 -9 14 -8 25 1 10 5 17 9 14 4 -3 5 -12 2 -22 -5 -15 -4 -15 5 -1 11 16 4 62
-8 54 -4 -2 -8 2 -8 10 0 15 42 15 66 1 6 -4 11 -4 11 1 0 8 119 7 153 -1 9
-2 17 1 18 7 0 8 2 8 6 -1 2 -6 9 -9 14 -6 12 7 494 1 494 -6 0 -1 7 -3 16 -5
9 -1 27 -6 39 -10 15 -5 20 -4 16 4 -5 7 -1 9 8 5 9 -3 13 -11 10 -16 -4 -6 2
-7 16 -3 15 5 20 4 16 -4 -7 -10 -3 -13 27 -15 6 -1 18 -8 25 -16 10 -13 11
-12 7 5 l-6 20 11 -20 c14 -25 60 -60 60 -45 0 5 8 10 18 10 13 0 14 -2 3 -9
-11 -7 -7 -18 19 -55 19 -25 37 -46 42 -46 4 0 7 -6 6 -12 -2 -7 2 -12 8 -11
6 1 11 -6 11 -15 0 -27 15 -82 23 -82 4 0 6 -27 4 -60 -2 -51 0 -59 12 -49 8
6 14 17 14 24 0 7 7 19 17 26 15 13 15 12 2 -8 -11 -19 -11 -27 -1 -43 16 -27
15 -38 -2 -15 -13 18 -14 18 -31 1 -12 -11 -16 -26 -12 -45 3 -15 0 -46 -8
-68 -8 -22 -16 -52 -17 -66 -2 -15 -7 -29 -11 -33 -4 -4 -2 -13 4 -20 7 -8 6
-14 -2 -20 -8 -5 -9 -3 -4 6 6 9 4 11 -4 6 -7 -5 -10 -14 -7 -22 3 -8 2 -14
-2 -14 -5 0 -21 -24 -36 -52 -16 -29 -34 -56 -40 -60 -11 -7 -12 -11 -15 -43
0 -9 -12 -20 -26 -25 -13 -5 -37 -27 -52 -48 -16 -21 -34 -37 -40 -35 -7 3
-24 -3 -40 -12 -15 -9 -19 -13 -8 -10 13 4 17 3 10 -4 -5 -5 -21 -11 -35 -13
-30 -4 -52 -17 -46 -27 3 -4 -4 -8 -15 -8 -11 -1 -17 3 -13 9 4 6 -2 5 -15 -2
-24 -12 -56 -21 -83 -23 -9 -1 -14 -6 -10 -12 3 -5 -1 -4 -10 3 -10 8 -23 10
-39 4 -13 -5 -41 -7 -61 -4 -21 2 -46 1 -55 -3 -10 -4 -67 -7 -126 -5 l-109 2
5 -36 c3 -20 1 -33 -4 -30 -8 4 -14 -25 -10 -48 0 -4 -4 -19 -9 -33 -5 -14
-14 -51 -18 -80 -8 -47 -7 -55 7 -56 13 -1 13 -2 -2 -6 -9 -2 -15 -9 -12 -14
4 -5 1 -9 -5 -9 -6 0 -9 -4 -6 -9 13 -21 -52 -31 -210 -31 -194 0 -197 1 -199
86 0 30 3 54 7 54 4 0 8 7 8 16 0 8 -4 13 -8 10 -5 -3 -9 1 -9 9 0 8 3 14 6
13 19 -2 22 4 11 17 -7 9 -14 32 -16 52 -2 26 0 32 7 23 6 -10 9 -11 9 -2 0 6
7 12 16 12 8 0 12 5 9 10 -3 6 -3 16 2 23 17 27 10 33 -41 30 -134 -8 -264 -8
-260 -1 3 4 -1 8 -10 8 -8 0 -16 -5 -18 -11 -2 -6 -12 0 -23 13 -16 18 -16 20
-2 9 15 -12 17 -12 11 3 -3 9 -10 16 -14 16 -9 0 -4 46 7 63 3 6 1 7 -5 3 -15
-9 -9 18 8 40 12 13 12 18 3 21 -7 3 -13 9 -13 14 0 6 5 7 10 4 10 -6 14 13
11 48 -1 9 3 17 8 17 6 0 11 5 11 11 0 5 -5 7 -11 3 -6 -3 -4 4 4 17 8 13 14
38 13 56 0 17 2 30 5 28 8 -6 28 106 25 147 -1 20 1 35 5 33 10 -7 19 21 14
45 -2 11 0 20 4 20 4 0 8 6 8 13 1 6 4 27 8 45 5 20 4 32 -3 32 -15 0 -23 28
-10 36 6 4 8 3 4 -4 -3 -6 -2 -13 3 -16 5 -4 8 2 7 11 -2 11 -16 20 -37 25
-45 9 -254 7 -214 -3 29 -6 29 -7 4 -8 -24 -1 -28 -6 -35 -48 -4 -27 -8 -64
-8 -85 -1 -20 -4 -34 -8 -32 -13 8 -9 -11 5 -25 10 -11 9 -13 -1 -7 -13 8 -17
0 -26 -52 -3 -20 -2 -31 4 -27 6 3 7 -1 4 -9 -3 -9 -9 -14 -13 -12 -4 3 -7 -5
-8 -17 0 -22 -2 -34 -22 -121 -7 -27 -12 -64 -13 -83 -1 -19 -5 -36 -10 -39
-5 -3 -6 -14 -3 -25 4 -10 2 -19 -2 -19 -11 0 -11 -45 0 -56 4 -4 7 -12 7 -18
0 -6 -4 -4 -10 4 -5 8 -12 11 -16 7 -4 -3 -1 -13 5 -21 13 -16 7 -36 -11 -36
-6 0 -5 7 3 18 13 15 12 16 -3 3 -10 -7 -16 -17 -13 -21 3 -5 1 -11 -3 -14
-15 -9 -325 -10 -351 -2 -18 6 -22 5 -17 -5 4 -8 1 -6 -7 4 -17 20 -31 23 -24
4 3 -8 -1 -14 -8 -14 -10 0 -11 5 -5 18 7 12 6 19 -3 23 -6 3 -2 3 11 0 12 -3
22 -3 22 1 0 3 -10 10 -22 15 -18 7 -19 9 -5 9 9 1 17 6 17 12 0 5 -4 8 -9 4
-5 -3 -13 0 -17 6 -4 8 -3 9 4 5 6 -3 16 3 22 14 9 16 8 20 -5 20 -9 0 -13 -4
-10 -10 3 -5 1 -10 -5 -10 -6 0 -10 8 -8 18 2 10 11 16 22 14 12 -2 15 1 11 8
-4 7 -2 16 4 20 8 5 4 12 -12 23 -23 15 -26 15 -31 1 -3 -9 -3 -21 1 -26 3 -7
1 -8 -6 -4 -12 8 -101 -43 -101 -57 0 -5 4 -6 8 -3 5 3 9 -1 9 -7 0 -7 -12
-12 -26 -12 -32 1 -61 -12 -61 -28 0 -8 3 -7 9 2 7 10 9 7 8 -12 -1 -14 -6
-22 -12 -19 -5 4 -18 5 -27 4 -10 -2 -18 1 -18 7 0 6 7 8 15 5 8 -4 15 -1 15
4 0 15 -17 24 -24 13 -6 -9 -64 -25 -83 -22 -8 1 -10 -5 -7 -14 5 -12 9 -13
20 -4 8 6 14 8 14 3 0 -5 5 -2 11 6 9 13 10 13 6 0 -2 -8 -9 -16 -15 -16 -7
-1 -13 -2 -14 -4 -9 -6 -37 -7 -33 0 3 4 -2 11 -11 14 -28 11 -38 6 -18 -9 17
-13 15 -13 -19 -3 -29 9 -43 9 -57 0 -12 -7 -21 -8 -25 -2 -3 6 -12 10 -18 10
-7 0 -6 -4 3 -10 9 -6 10 -10 3 -10 -6 0 -14 3 -16 8 -3 4 -61 5 -129 2 l-123
-5 -1 -25 c0 -14 -4 -33 -8 -42 -5 -10 -6 -24 -3 -32 3 -8 2 -16 -3 -18 -5 -2
-11 -19 -14 -38 -3 -19 -10 -59 -15 -89 -9 -43 -8 -57 1 -64 10 -6 10 -8 -1
-5 -8 3 -23 -4 -33 -14 -10 -10 -29 -18 -43 -18 -14 0 -25 -6 -25 -12 0 -10
-2 -10 -9 0 -6 11 -41 13 -154 10 -80 -2 -141 0 -135 3 6 4 2 12 -10 20 -12 9
-18 23 -16 37 3 14 0 21 -6 17 -12 -8 -13 8 -1 21 13 13 31 85 20 79 -10 -7
-11 -4 -13 37 -1 15 2 24 8 21 6 -4 6 1 2 13 -6 15 -5 17 6 6 10 -10 10 -17 0
-32 -14 -24 -15 -30 -3 -30 11 0 27 63 35 136 1 11 6 26 11 34 5 9 4 11 -3 6
-7 -4 -12 -2 -12 3 0 6 6 11 13 12 6 0 3 4 -8 9 -15 6 -16 9 -4 9 16 1 43 67
33 83 -3 5 0 16 8 25 11 14 11 16 -2 8 -12 -6 -13 -5 -3 5 8 9 9 19 2 32 -7
13 -7 18 2 16 7 -2 15 5 17 14 3 14 -1 16 -15 12 -14 -5 -13 -3 4 10 22 17 24
35 7 57 -19 24 -26 40 -17 38 15 -4 43 13 37 22 -3 5 1 9 8 9 10 0 10 2 -1 9
-9 6 -10 11 -2 15 13 8 15 36 2 36 -9 0 -23 -33 -25 -59 -1 -8 -7 -16 -14 -17
-7 -1 -8 0 -2 3 5 2 7 9 4 14 -3 6 0 17 7 25 10 13 10 17 0 24 -10 5 -5 10 16
14 27 6 30 11 41 77 7 39 9 75 6 81 -4 7 -2 8 4 4 15 -9 15 -1 1 26 -8 14 -8
18 0 14 6 -4 13 5 17 20 5 20 2 31 -12 42 -18 13 -18 14 4 7 13 -4 22 -2 22 4
0 6 -5 11 -11 11 -6 0 -3 7 5 16 15 14 20 46 18 103 -1 13 2 21 5 17 9 -9 32
105 29 138 -2 14 1 23 5 20 5 -3 9 2 9 11 0 10 -5 14 -12 10 -7 -4 -5 0 5 8 9
8 17 19 17 26 0 6 3 10 8 10 20 -3 32 2 26 13 -4 6 -3 8 3 5 5 -3 167 -7 360
-9 216 -1 349 -6 346 -12 -4 -5 10 -7 33 -3 27 4 34 3 24 -3 -12 -8 -12 -10 5
-11 11 -1 28 0 39 1 11 1 15 -3 12 -9 -7 -10 14 -16 38 -12 5 1 15 -8 23 -19
10 -14 22 -20 34 -17 11 3 22 0 26 -5 3 -7 1 -8 -5 -4 -8 4 -10 2 -6 -8 3 -8
14 -13 25 -11 11 2 17 0 14 -5 -8 -12 6 -41 16 -34 5 3 9 -2 9 -10 0 -9 5 -15
12 -14 7 2 12 -1 13 -7 1 -17 36 -85 43 -85 5 0 8 11 8 24 0 14 -3 23 -7 20
-4 -2 -11 0 -14 6 -4 6 -3 10 2 9 21 -4 31 3 28 19 -1 9 2 25 7 35 5 10 5 17
-1 17 -5 0 -12 7 -15 16 -5 14 -4 15 9 4 8 -7 15 -9 15 -4 0 5 3 20 7 33 5 19
3 22 -8 16 -10 -6 -10 -4 2 11 8 10 15 31 14 46 0 15 2 25 6 23 6 -4 18 59 24
121 1 11 5 27 10 34 5 8 4 11 -3 6 -6 -3 -9 1 -8 11 2 9 8 19 14 21 7 2 12 13
12 23 0 11 -4 18 -8 15 -5 -3 -9 1 -9 9 0 8 4 12 8 9 4 -2 10 0 14 6 3 5 1 10
-5 10 -8 0 -8 4 0 13 5 6 19 24 30 39 14 18 26 25 37 21 11 -4 14 -3 9 5 -4 7
-2 12 3 12 6 0 11 -4 11 -9z m-1063 -7 c-3 -3 -12 -4 -19 -1 -8 3 -5 6 6 6 11
1 17 -2 13 -5z m983 -34 c0 -5 -9 -14 -20 -20 -14 -7 -20 -7 -20 0 0 5 7 10
15 10 8 0 15 5 15 10 0 6 2 10 5 10 3 0 5 -4 5 -10z m-1343 -126 c-3 -3 -12
-4 -19 -1 -8 3 -5 6 6 6 11 1 17 -2 13 -5z m3408 -22 c-3 -3 -11 0 -18 7 -9
10 -8 11 6 5 10 -3 15 -9 12 -12z m-10 -22 c3 -5 1 -10 -4 -10 -6 0 -11 5 -11
10 0 6 2 10 4 10 3 0 8 -4 11 -10z m195 -100 c0 -5 -2 -10 -4 -10 -3 0 -8 5
-11 10 -3 6 -1 10 4 10 6 0 11 -4 11 -10z m-3476 -60 c-6 -6 -10 -3 -10 10 0
13 4 16 10 10 7 -7 7 -13 0 -20z m873 15 c0 -8 -4 -15 -9 -15 -10 0 -11 14 -1
23 9 10 10 9 10 -8z m1073 -1 c0 -2 -7 -4 -15 -4 -8 0 -15 4 -15 10 0 5 7 7
15 4 8 -4 15 -8 15 -10z m74 7 c-3 -3 5 -10 17 -17 14 -7 18 -14 10 -18 -6 -4
-11 -2 -11 3 0 6 -6 11 -12 11 -7 0 -21 7 -31 14 -17 13 -16 14 7 12 13 0 22
-3 20 -5z m1026 -5 c-7 -7 -13 -7 -20 0 -6 6 -3 10 10 10 13 0 16 -4 10 -10z
m94 -7 c-3 -5 -15 -8 -27 -8 -17 1 -18 2 -4 6 9 2 15 9 12 14 -3 5 1 6 9 3 9
-3 13 -10 10 -15z m-2210 2 c4 -5 -3 -7 -14 -4 -23 6 -26 13 -6 13 8 0 17 -4
20 -9z m-19 -21 c3 -5 1 -10 -4 -10 -6 0 -11 5 -11 10 0 6 2 10 4 10 3 0 8 -4
11 -10z m2645 -20 c0 -5 -5 -10 -11 -10 -5 0 -7 5 -4 10 3 6 8 10 11 10 2 0 4
-4 4 -10z m-2535 -30 c3 -6 -1 -7 -9 -4 -18 7 -21 14 -7 14 6 0 13 -4 16 -10z
m2225 -4 c-4 -4 -16 -4 -26 2 -16 9 -14 10 8 9 15 -1 23 -6 18 -11z m-1080 -6
c0 -5 -2 -10 -4 -10 -3 0 -8 5 -11 10 -3 6 -1 10 4 10 6 0 11 -4 11 -10z
m-1040 -65 c0 -1 -12 -12 -27 -26 -16 -13 -23 -17 -16 -10 10 11 9 17 -3 25
-11 9 -8 11 16 11 16 1 30 0 30 0z m2219 -39 c0 -6 -3 -6 -6 2 -4 10 -8 10
-19 1 -11 -9 -14 -8 -14 3 0 8 3 18 7 21 8 9 33 -12 32 -27z m349 -2 c-4 -3
-12 5 -18 18 -12 22 -12 22 6 6 10 -10 15 -20 12 -24z m32 16 c0 -5 -2 -10 -4
-10 -3 0 -8 5 -11 10 -3 6 -1 10 4 10 6 0 11 -4 11 -10z m-3797 -90 c-10 -11
-19 -20 -20 -20 -7 0 3 26 12 32 20 15 24 8 8 -12z m3876 -25 c0 -5 -6 -1 -14
9 -8 11 -15 24 -15 30 0 5 7 1 15 -10 8 -10 14 -23 14 -29z m-3862 3 c-3 -8
-6 -5 -6 6 -1 11 2 17 5 13 3 -3 4 -12 1 -19z m3463 -33 c0 -8 -2 -15 -4 -15
-2 0 -6 7 -10 15 -3 8 -1 15 4 15 6 0 10 -7 10 -15z m-3467 -2 c-7 -2 -19 -2
-25 0 -7 3 -2 5 12 5 14 0 19 -2 13 -5z m-676 -25 c-3 -8 -6 -5 -6 6 -1 11 2
17 5 13 3 -3 4 -12 1 -19z m-34 -18 c-3 -12 -8 -19 -11 -16 -5 6 5 36 12 36 2
0 2 -9 -1 -20z m2470 13 c-7 -2 -19 -2 -25 0 -7 3 -2 5 12 5 14 0 19 -2 13 -5z
m2138 -16 c-10 -9 -11 -8 -5 6 3 10 9 15 12 12 3 -3 0 -11 -7 -18z m-2251 -7
c0 -5 -2 -10 -4 -10 -3 0 -8 5 -11 10 -3 6 -1 10 4 10 6 0 11 -4 11 -10z m171
-43 c-10 -9 -11 -8 -5 6 3 10 9 15 12 12 3 -3 0 -11 -7 -18z m-1831 -7 c0 -5
-5 -10 -11 -10 -5 0 -7 5 -4 10 3 6 8 10 11 10 2 0 4 -4 4 -10z m1852 -12 c-7
-7 -12 -8 -12 -2 0 6 3 14 7 17 3 4 9 5 12 2 2 -3 -1 -11 -7 -17z m-2605 -135
c-3 -10 -5 -2 -5 17 0 19 2 27 5 18 2 -10 2 -26 0 -35z m2330 -33 c-2 -23 -10
-17 -12 10 -1 10 2 17 6 14 4 -2 7 -13 6 -24z m-1647 -30 c0 -5 -8 -10 -17
-10 -15 0 -16 2 -3 10 19 12 20 12 20 0z m1644 -84 c-3 -9 -12 -12 -22 -9 -15
6 -9 11 25 22 1 1 0 -5 -3 -13z m1842 -41 c-1 -8 -5 -17 -8 -21 -5 -4 -4 16 1
34 3 9 9 -1 7 -13z m-1849 -17 c-3 -8 -6 -5 -6 6 -1 11 2 17 5 13 3 -3 4 -12
1 -19z m187 -10 c-5 -7 -2 -9 9 -5 11 4 14 2 10 -9 -3 -7 -9 -14 -13 -14 -10
0 -20 26 -13 34 10 10 15 7 7 -6z m-1834 -24 c0 -22 -16 -17 -17 6 -1 11 2 18
8 15 5 -4 9 -13 9 -21z m4007 -26 c-3 -8 -6 -5 -6 6 -1 11 2 17 5 13 3 -3 4
-12 1 -19z m30 0 c-3 -8 -6 -5 -6 6 -1 11 2 17 5 13 3 -3 4 -12 1 -19z m-624
-38 c-3 -12 -8 -19 -11 -16 -5 6 5 36 12 36 2 0 2 -9 -1 -20z m584 -2 c-3 -8
-6 -5 -6 6 -1 11 2 17 5 13 3 -3 4 -12 1 -19z m-597 -32 c0 -3 -4 -8 -10 -11
-5 -3 -10 -1 -10 4 0 6 5 11 10 11 6 0 10 -2 10 -4z m15 -25 c-3 -6 -11 -11
-16 -11 -5 0 -4 6 3 14 14 16 24 13 13 -3z m-58 3 c-3 -3 -12 -4 -19 -1 -8 3
-5 6 6 6 11 1 17 -2 13 -5z m-31 -49 c-3 -8 -10 -15 -15 -15 -5 0 -4 11 2 25
12 25 23 16 13 -10z m611 13 c-3 -8 -6 -5 -6 6 -1 11 2 17 5 13 3 -3 4 -12 1
-19z m-2882 -8 c-3 -5 -12 -10 -18 -10 -7 0 -6 4 3 10 19 12 23 12 15 0z m522
-22 c-3 -8 -6 -5 -6 6 -1 11 2 17 5 13 3 -3 4 -12 1 -19z m1699 -16 c-10 -2
-22 0 -28 6 -6 6 0 7 19 4 21 -5 23 -7 9 -10z m59 -1 c-3 -6 -11 -11 -16 -11
-5 0 -4 6 3 14 14 16 24 13 13 -3z m-3400 -21 c-3 -5 -12 -10 -18 -10 -7 0 -6
4 3 10 19 12 23 12 15 0z m953 -51 c11 0 9 -3 -7 -10 -13 -5 -26 -7 -29 -4 -3
3 0 5 6 5 6 0 10 6 8 13 -1 6 -1 9 1 5 3 -5 12 -8 21 -9z m2232 10 c12 -9 12
-10 -4 -5 -11 4 -23 1 -27 -5 -4 -7 -21 -13 -38 -14 -16 -1 -28 2 -25 7 3 5 9
6 12 4 4 -2 18 2 32 10 30 16 31 16 50 3z m44 -12 c-3 -8 -12 -14 -21 -14 -13
0 -13 2 3 14 10 7 19 13 21 13 1 0 0 -6 -3 -13z m-1600 -5 c2 -4 -4 -8 -14 -8
-10 0 -16 4 -14 8 3 4 9 8 14 8 5 0 11 -4 14 -8z m621 -22 c-3 -5 -12 -10 -18
-10 -7 0 -6 4 3 10 19 12 23 12 15 0z m1695 0 c0 -5 -2 -10 -4 -10 -3 0 -8 5
-11 10 -3 6 -1 10 4 10 6 0 11 -4 11 -10z m-171 -163 c-2 -1 -15 -11 -29 -22
l-25 -20 19 23 c11 12 24 22 29 22 6 0 8 -1 6 -3z m-3362 -59 c-3 -8 -6 -5 -6
6 -1 11 2 17 5 13 3 -3 4 -12 1 -19z m2248 12 c3 -5 1 -10 -4 -10 -6 0 -11 5
-11 10 0 6 2 10 4 10 3 0 8 -4 11 -10z m1055 6 c0 -2 -8 -10 -17 -17 -16 -13
-17 -12 -4 4 13 16 21 21 21 13z m-3280 -66 c0 -5 -8 -10 -17 -10 -15 0 -16 2
-3 10 19 12 20 12 20 0z m-495 -10 c3 -5 1 -10 -4 -10 -6 0 -11 5 -11 10 0 6
2 10 4 10 3 0 8 -4 11 -10z m3675 0 c-8 -5 -19 -10 -25 -10 -5 0 -3 5 5 10 8
5 20 10 25 10 6 0 3 -5 -5 -10z m-950 -4 c0 -2 -7 -9 -15 -16 -13 -11 -14 -10
-9 4 5 14 24 23 24 12z m-2220 -10 c0 -3 -4 -8 -10 -11 -5 -3 -10 -1 -10 4 0
6 5 11 10 11 6 0 10 -2 10 -4z m-342 -53 c-15 -2 -42 -2 -60 0 -18 2 -6 4 27
4 33 0 48 -2 33 -4z m99 1 c-3 -3 -12 -4 -19 -1 -8 3 -5 6 6 6 11 1 17 -2 13
-5z m3303 -4 c-8 -5 -19 -10 -25 -10 -5 0 -3 5 5 10 8 5 20 10 25 10 6 0 3 -5
-5 -10z m-937 -17 c-7 -2 -19 -2 -25 0 -7 3 -2 5 12 5 14 0 19 -2 13 -5z
m-286 -9 c-3 -3 -12 -4 -19 -1 -8 3 -5 6 6 6 11 1 17 -2 13 -5z m536 -231 c-7
-2 -19 -2 -25 0 -7 3 -2 5 12 5 14 0 19 -2 13 -5z m-346 -39 c-3 -3 -12 -4
-19 -1 -8 3 -5 6 6 6 11 1 17 -2 13 -5z m0 -30 c-3 -3 -12 -4 -19 -1 -8 3 -5
6 6 6 11 1 17 -2 13 -5z m-80 -10 c-3 -3 -12 -4 -19 -1 -8 3 -5 6 6 6 11 1 17
-2 13 -5z"/>
<path d="M2265 3418 c-16 -49 -252 -1295 -246 -1301 4 -4 68 -6 141 -5 l134 3
67 340 c36 187 69 357 73 378 l7 37 143 0 c150 0 200 -9 229 -42 32 -37 25
-92 -68 -555 -37 -181 -49 -163 114 -163 124 0 140 2 145 18 3 9 33 161 67
337 70 365 73 423 26 494 -60 91 -166 121 -429 121 -166 0 -178 1 -178 18 0
10 13 88 30 173 16 85 30 155 30 157 0 1 -63 2 -140 2 -104 0 -142 -3 -145
-12z"/>
<path d="M3230 3134 c0 -8 5 -12 10 -9 6 3 10 10 10 16 0 5 -4 9 -10 9 -5 0
-10 -7 -10 -16z"/>
<path d="M918 2428 c-70 -359 -124 -656 -119 -661 4 -4 68 -6 142 -5 l134 3
26 135 c14 74 29 152 33 173 l7 37 122 0 c348 1 492 46 625 196 135 150 191
406 123 560 -44 100 -155 180 -281 204 -29 6 -195 10 -369 10 l-316 0 -127
-652z m737 417 c22 -11 50 -36 63 -55 22 -32 24 -43 19 -120 -9 -150 -65 -258
-159 -304 -71 -35 -139 -46 -274 -46 -106 0 -114 1 -114 19 0 17 82 448 97
509 l5 23 162 -3 c137 -3 167 -6 201 -23z"/>
<path d="M1344 2799 c-4 -7 -3 -9 2 -6 5 3 10 -3 10 -13 0 -14 -4 -16 -13 -9
-9 8 -11 6 -8 -10 2 -11 0 -23 -5 -26 -7 -4 -21 -75 -25 -130 -1 -11 -7 -36
-14 -56 -6 -20 -13 -57 -14 -82 -1 -25 -6 -43 -10 -40 -5 3 -7 -3 -5 -13 3
-17 15 -19 101 -22 65 -2 97 1 97 8 0 6 4 9 10 5 13 -8 60 5 60 17 0 5 -5 6
-12 2 -7 -4 -8 -3 -4 5 6 9 11 9 22 0 11 -9 19 -8 36 7 42 36 48 43 48 53 0 6
4 11 9 11 5 0 8 11 6 25 -1 14 2 28 8 32 6 4 7 1 2 -8 -7 -12 -5 -12 6 -1 12
11 12 14 0 21 -10 7 -11 9 -1 13 16 5 19 21 22 111 1 45 -3 71 -12 80 -8 8
-11 8 -6 0 7 -13 -31 -6 -40 8 -3 5 3 6 13 3 14 -4 15 -4 4 4 -7 5 -22 7 -32
5 -10 -3 -19 -1 -19 4 0 15 -227 17 -236 2z m216 -3 c0 -3 -4 -8 -10 -11 -5
-3 -10 -1 -10 4 0 6 5 11 10 11 6 0 10 -2 10 -4z m35 -24 c-12 -12 -33 -10
-28 3 2 8 11 11 19 8 8 -3 12 -8 9 -11z m-241 -50 c3 -5 -1 -9 -9 -9 -8 0 -12
4 -9 9 3 4 7 8 9 8 2 0 6 -4 9 -8z m-18 -58 c-6 -19 -12 -28 -14 -20 -3 13 14
56 22 56 2 0 -2 -16 -8 -36z m299 -64 c3 -5 1 -10 -4 -10 -6 0 -11 5 -11 10 0
6 2 10 4 10 3 0 8 -4 11 -10z m-13 -32 c-5 -7 -8 -23 -6 -35 2 -12 0 -24 -4
-27 -4 -2 -7 7 -7 22 1 27 11 52 22 52 3 0 1 -6 -5 -12z m-298 -13 c-4 -8 -11
-15 -16 -15 -6 0 -5 6 2 15 7 8 14 15 16 15 2 0 1 -7 -2 -15z m21 -15 c3 -5 1
-10 -4 -10 -6 0 -11 5 -11 10 0 6 2 10 4 10 3 0 8 -4 11 -10z m140 -118 c-3
-3 -11 0 -18 7 -9 10 -8 11 6 5 10 -3 15 -9 12 -12z"/>
<path d="M3285 3068 c-15 -41 -252 -1294 -246 -1301 4 -4 68 -6 142 -5 l134 3
34 173 34 172 111 0 c272 1 412 27 523 99 252 163 345 551 180 747 -34 41
-129 90 -208 109 -86 20 -697 22 -704 3z m622 -227 c61 -35 77 -75 70 -175 -3
-46 -14 -105 -26 -137 -61 -160 -156 -209 -408 -209 -101 0 -113 2 -113 18 0
9 22 132 50 272 27 140 50 257 50 258 0 2 75 2 168 0 155 -3 170 -5 209 -27z"/>
<path d="M3590 2789 c7 -12 8 -19 2 -15 -12 7 -27 -48 -17 -64 3 -5 1 -10 -5
-10 -7 0 -9 -8 -5 -20 4 -11 2 -20 -4 -20 -6 0 -11 -5 -11 -11 0 -5 5 -7 10
-4 6 3 10 2 10 -4 0 -5 -5 -11 -11 -13 -10 -3 -15 -23 -23 -95 -3 -18 -7 -36
-10 -41 -3 -5 -8 -23 -11 -41 -3 -18 -7 -38 -8 -44 -1 -8 24 -13 78 -15 86 -3
149 4 141 17 -3 4 8 7 24 6 17 -1 30 2 30 7 0 4 6 8 14 8 19 0 86 78 86 101 0
10 4 20 9 23 5 4 14 37 21 75 24 145 -12 176 -209 180 l-122 2 11 -22z m230 1
c0 -5 -4 -10 -10 -10 -5 0 -10 5 -10 10 0 6 5 10 10 10 6 0 10 -4 10 -10z m27
-13 c0 -8 -6 -14 -13 -14 -7 0 -10 6 -7 14 3 7 8 13 12 13 4 0 8 -6 8 -13z
m-250 -44 c1 -22 -1 -24 -8 -10 -6 9 -7 22 -4 27 9 14 10 13 12 -17z m-7 -107
c0 -2 -8 -10 -17 -17 -16 -13 -17 -12 -4 4 13 16 21 21 21 13z m280 -71 c-6
-8 -9 -19 -6 -24 4 -5 1 -13 -5 -17 -8 -4 -9 -3 -5 4 4 7 2 12 -3 12 -7 0 -7
7 1 20 7 11 17 20 22 20 4 0 3 -7 -4 -15z m-323 -147 c-3 -7 -5 -2 -5 12 0 14
2 19 5 13 2 -7 2 -19 0 -25z m30 10 c-3 -8 -6 -5 -6 6 -1 11 2 17 5 13 3 -3 4
-12 1 -19z m143 17 c0 0 -9 -8 -19 -17 -18 -16 -20 -15 -18 1 0 9 9 17 19 17
10 0 18 -1 18 -1z"/>
<path d="M827 2393 c-10 -9 -9 -23 2 -23 5 0 11 7 15 15 5 15 -5 20 -17 8z"/>
<path d="M1962 2290 c-26 -34 -27 -46 -7 -54 18 -7 20 5 3 23 -11 10 -10 12 1
9 8 -2 17 9 22 25 9 34 8 34 -19 -3z"/>
<path d="M2981 1961 c-10 -18 -10 -25 0 -35 9 -8 10 -8 4 3 -4 7 -2 17 5 21 7
4 10 14 8 21 -3 10 -9 7 -17 -10z"/>
</g>
</svg>
